<?xml version="1.0" encoding="iso-8859-1"?>
<svg version="1.1" id="Layer_1" xmlns="http://www.w3.org/2000/svg" xmlns:xlink="http://www.w3.org/1999/xlink" x="0px" y="0px"
	 viewBox="0 0 512.258 512.258" style="enable-background:new 0 0 512.258 512.258;" xml:space="preserve">
<path style="fill:#F44336;" d="M425.616,155.244C369.146,42.177,298.17,0.023,266.746,0.023
	c-11.797-0.295-23.479,2.391-33.963,7.808c-6.202,3.763-14.035,3.537-20.011-0.576c-9.797-4.679-20.503-7.148-31.36-7.232
	c-28.821,0-107.605,91.733-117.099,136.533c-0.615,2.985,0.076,6.091,1.899,8.533l62.805,83.755
	c2.411,8.832,6.208,27.115,10.197,46.379c6.955,33.579,14.933,71.637,21.333,90.923c1.135,3.31,3.822,5.854,7.189,6.805
	c0.979,0.274,1.991,0.41,3.008,0.405c2.478-0.005,4.876-0.872,6.784-2.453l245.333-202.667
	C426.694,165.074,427.835,159.687,425.616,155.244z"/>
<path style="fill:#CFD8DC;" d="M485.52,175.916c-35.278-35.258-92.406-35.41-127.872-0.341
	c-6.016,5.483-16.597,14.549-29.867,25.877c-50.773,43.477-135.787,116.245-162.496,155.733
	c-35.558,35.273-35.79,92.693-0.517,128.251c35.273,35.558,92.693,35.79,128.251,0.517c7.713-7.651,13.988-16.626,18.527-26.496
	c31.674-38.932,68.867-73.028,110.4-101.205c23.141-15.65,44.49-33.8,63.659-54.123C520.913,268.67,520.875,211.328,485.52,175.916z
	"/>
<path style="fill:#D32F2F;" d="M133.52,188.033c-5.891-0.013-10.656-4.799-10.643-10.69c0.004-1.906,0.519-3.777,1.491-5.417
	c2.667-4.501,26.965-43.904,57.045-43.904c5.891,0,10.667,4.776,10.667,10.667s-4.776,10.667-10.667,10.667
	c-14.229,0-32.235,22.549-38.72,33.472C140.767,186.059,137.282,188.037,133.52,188.033z"/>
<circle style="fill:#FFC107;" cx="74.746" cy="202.689" r="74.667"/>
<path d="M74.746,277.356c-41.237,0-74.667-33.429-74.667-74.667s33.429-74.667,74.667-74.667s74.667,33.429,74.667,74.667
	S115.984,277.356,74.746,277.356z M74.746,149.356c-29.455,0-53.333,23.878-53.333,53.333s23.878,53.333,53.333,53.333
	s53.333-23.878,53.333-53.333S104.202,149.356,74.746,149.356z"/>
<path d="M416.08,170.689c-4.044,0.008-7.745-2.272-9.557-5.888C352.891,57.473,288.08,21.356,266.746,21.356
	c-8.619-0.276-17.162,1.694-24.789,5.717c-5.476,3.06-11.607,4.757-17.877,4.949c-6.826-0.311-13.512-2.047-19.627-5.099
	c-7.175-3.532-15.043-5.434-23.04-5.568c-14.933,1.899-87.744,79.616-96.235,119.467c-1.52,5.691-7.367,9.073-13.058,7.552
	c-5.22-1.394-8.572-6.471-7.806-11.819c9.493-44.8,88.277-136.533,117.099-136.533c10.859,0.085,21.566,2.561,31.36,7.253
	c5.993,4.073,13.809,4.281,20.011,0.533c10.486-5.409,22.167-8.087,33.963-7.787c31.424,0,102.4,42.155,158.869,155.221
	c2.634,5.269,0.498,11.676-4.771,14.311c-0.003,0.001-0.005,0.003-0.008,0.004C419.362,170.303,417.732,170.691,416.08,170.689z"/>
<path d="M229.413,512.023c-50.074-0.005-90.663-40.602-90.658-90.675c0.002-24.041,9.553-47.097,26.551-64.098
	c26.773-39.573,111.765-112.363,162.581-155.883c13.205-11.307,23.744-20.331,29.867-25.813
	c35.462-35.086,92.61-34.924,127.872,0.363l0,0c35.402,35.407,35.402,92.807,0,128.213c-19.174,20.317-40.521,38.467-63.659,54.123
	c-41.54,28.177-78.74,62.272-110.421,101.205C296.935,491.647,264.763,512.238,229.413,512.023z M421.413,170.689
	c-18.402-0.047-36.062,7.247-49.067,20.267c-6.4,5.909-17.195,15.083-30.613,26.581c-46.72,40-133.717,114.432-160.107,153.216
	c-13.685,13.29-21.45,31.526-21.547,50.603c-0.288,38.173,30.423,69.352,68.596,69.64c27.626,0.209,52.722-16.053,63.82-41.352
	c0.308-0.72,0.702-1.401,1.173-2.027c32.98-41.038,71.893-76.931,115.456-106.496c22.006-14.892,42.341-32.115,60.651-51.371
	c13.391-13.083,20.95-31.007,20.971-49.728c0.065-18.413-7.25-36.085-20.309-49.067l0,0
	C457.443,177.947,439.8,170.653,421.413,170.689z"/>
<path d="M133.52,188.033c-1.914-0.001-3.794-0.516-5.44-1.493c-5.065-3.009-6.731-9.554-3.722-14.619
	c0.003-0.005,0.006-0.011,0.01-0.016c2.667-4.459,26.965-43.883,57.045-43.883c5.891,0,10.667,4.776,10.667,10.667
	s-4.776,10.667-10.667,10.667c-14.229,0-32.235,22.549-38.72,33.472C140.767,186.059,137.282,188.037,133.52,188.033z"/>
<path d="M170.746,373.356c-4.559,0-8.614-2.898-10.091-7.211c-6.613-19.2-14.485-57.344-21.44-90.944
	c-4.267-20.672-8.32-40.213-10.667-48.149c-1.858-5.59,1.167-11.629,6.757-13.487s11.629,1.167,13.487,6.757
	c0.071,0.215,0.136,0.431,0.193,0.65c2.624,8.811,6.571,27.861,11.136,49.899c6.4,31.36,14.571,70.4,20.736,88.363
	c1.909,5.573-1.062,11.639-6.635,13.547C173.104,373.164,171.929,373.358,170.746,373.356z"/>
<g>
</g>
<g>
</g>
<g>
</g>
<g>
</g>
<g>
</g>
<g>
</g>
<g>
</g>
<g>
</g>
<g>
</g>
<g>
</g>
<g>
</g>
<g>
</g>
<g>
</g>
<g>
</g>
<g>
</g>
</svg>
